<?xml version="1.0" standalone="no"?>
<!DOCTYPE svg PUBLIC "-//W3C//DTD SVG 20010904//EN"
 "http://www.w3.org/TR/2001/REC-SVG-20010904/DTD/svg10.dtd">
<svg version="1.0" xmlns="http://www.w3.org/2000/svg"
 width="608.000000pt" height="608.000000pt" viewBox="0 0 608.000000 608.000000"
 preserveAspectRatio="xMidYMid meet">

<g transform="translate(0.000000,608.000000) scale(0.100000,-0.100000)"
fill="#000000" stroke="none">
<path d="M2947 6074 c-4 -4 -74 -11 -155 -15 -241 -12 -481 -59 -727 -142
-324 -111 -655 -292 -922 -505 -127 -102 -316 -283 -306 -293 4 -4 19 -9 33
-11 23 -3 21 -7 -46 -78 -362 -386 -627 -909 -728 -1435 -38 -198 -49 -322
-49 -555 -1 -253 12 -386 60 -615 185 -888 792 -1661 1601 -2039 246 -115 512
-202 734 -240 48 -8 95 -19 105 -24 17 -9 270 -31 403 -35 52 -2 65 -5 68 -19
6 -29 -42 -33 -125 -10 -58 16 -81 18 -104 10 -35 -12 -36 -18 -8 -42 19 -16
43 -18 208 -20 274 -2 456 13 501 42 18 11 43 15 86 13 44 -2 64 1 73 12 11
14 28 18 156 32 28 3 73 17 100 32 28 14 77 30 110 34 40 5 65 14 75 27 24 29
71 50 137 61 92 15 389 170 510 268 23 18 46 33 51 33 6 0 65 60 131 134 85
94 133 139 159 149 22 9 58 39 86 71 27 31 65 65 86 76 26 13 42 31 53 59 9
21 30 49 47 61 16 12 30 29 30 39 0 10 9 26 20 36 12 11 32 42 46 69 14 28 43
68 64 88 22 20 42 49 46 65 4 15 15 39 26 52 10 13 18 31 18 41 0 9 9 25 20
35 11 10 20 29 20 42 0 13 11 34 25 46 28 24 157 308 181 397 8 30 22 65 30
77 7 12 14 33 14 46 0 12 5 28 11 34 6 6 15 46 20 89 12 95 25 190 33 224 2
14 10 60 17 103 6 42 15 77 20 77 4 0 9 71 10 158 4 221 3 238 -11 272 -10 25
-10 45 0 104 11 63 10 85 -3 147 -22 104 -27 139 -42 262 -11 94 -16 112 -39
136 -21 22 -26 37 -26 78 0 34 -8 65 -25 97 -14 26 -25 55 -25 64 0 9 -7 30
-15 46 -8 15 -15 36 -15 45 0 27 -48 162 -64 180 -8 9 -50 89 -95 179 -45 89
-86 162 -91 162 -6 0 -10 9 -10 20 0 11 -13 33 -30 48 -16 15 -58 75 -94 134
-36 60 -84 131 -106 159 -22 28 -40 54 -40 59 0 4 -12 13 -27 20 -16 6 -75 67
-133 135 -58 68 -113 124 -122 124 -10 1 -18 6 -18 11 0 6 -8 10 -17 10 -10 0
-30 15 -45 34 -15 19 -52 46 -83 60 -30 15 -55 32 -55 39 0 20 -49 62 -105 90
-27 14 -58 34 -69 45 -10 12 -31 24 -47 27 -15 4 -31 15 -34 26 -4 11 -15 19
-28 19 -12 0 -62 25 -112 54 -51 30 -120 66 -156 79 -35 13 -80 34 -99 46 -19
11 -49 21 -65 21 -19 0 -35 7 -43 20 -7 11 -20 20 -29 20 -25 0 -152 40 -208
65 -61 27 -211 51 -229 36 -8 -7 -15 -5 -23 8 -15 25 -76 35 -119 21 -31 -11
-37 -10 -49 7 -10 14 -33 20 -97 25 -180 15 -303 20 -311 12z m388 -1206 c25
-29 55 -70 66 -91 l20 -39 -23 -6 c-74 -19 -187 -89 -259 -161 -42 -42 -85
-91 -97 -109 l-20 -33 -6 26 c-12 48 22 219 48 240 6 6 24 31 39 57 34 58 143
168 167 168 10 0 39 -24 65 -52z m325 -213 c20 -24 8 -189 -17 -247 -27 -59
-92 -124 -152 -151 -40 -19 -69 -22 -216 -25 -157 -4 -172 -2 -192 16 -23 19
-31 52 -14 52 5 0 12 12 16 28 11 46 75 142 131 196 60 59 146 109 225 130 75
20 203 21 219 1z m-952 -257 c7 -7 12 -21 12 -33 0 -31 -19 -45 -61 -45 -33 0
-38 -4 -48 -31 -6 -18 -11 -33 -11 -35 0 -2 19 -12 43 -22 86 -39 146 -127
147 -217 0 -82 -17 -123 -74 -181 -62 -61 -111 -79 -197 -71 -65 6 -104 24
-149 69 -89 88 -95 245 -13 330 27 28 28 49 4 111 -9 23 -16 27 -49 27 -59 0
-80 34 -45 72 12 13 31 18 74 18 68 0 81 -10 104 -82 23 -69 23 -70 44 -59 9
5 25 36 35 68 26 84 37 93 111 93 34 0 66 -5 73 -12z m262 -408 l0 -261 -42
29 c-24 17 -54 41 -67 55 -23 25 -23 27 -8 66 27 66 31 130 12 204 -14 57 -15
70 -3 84 11 14 98 82 106 83 1 0 2 -117 2 -260z m730 190 c127 -127 114 -290
-30 -404 -25 -20 -48 -36 -52 -36 -10 0 -11 484 -2 493 10 10 41 -10 84 -53z
m-180 -249 l0 -239 -27 -6 c-16 -4 -36 -9 -45 -12 -17 -5 -18 11 -18 235 l0
240 33 10 c17 5 38 10 45 10 9 1 12 -53 12 -238z m-362 -25 c2 -205 0 -237
-12 -233 -8 3 -31 9 -50 13 l-36 6 0 230 0 229 48 -3 47 -3 3 -239z m180 -3
l2 -243 -45 0 -45 0 0 246 0 245 43 -3 42 -3 3 -242z m-846 -651 c7 -7 1 -35
-20 -89 -16 -43 -40 -114 -52 -158 -12 -44 -25 -89 -30 -100 -21 -51 -71 -208
-67 -212 3 -2 -6 -36 -19 -74 -13 -39 -24 -79 -24 -89 0 -9 -7 -37 -16 -61
-35 -99 -84 -345 -84 -425 0 -90 16 -97 72 -35 52 57 106 157 138 254 13 37
27 70 31 73 17 10 12 -10 -22 -91 -24 -58 -39 -98 -39 -104 1 -16 58 89 65
117 3 18 11 32 16 32 6 0 8 4 5 9 -3 4 3 32 14 62 18 48 27 84 45 174 l6 30
-15 -32 c-20 -44 -27 -42 -13 3 6 21 19 39 29 42 18 4 25 22 9 22 -4 0 3 30
16 68 14 37 38 103 54 147 58 162 77 210 83 208 3 -2 24 -3 46 -3 58 0 61 -27
17 -127 -19 -43 -42 -105 -52 -138 -9 -33 -25 -80 -35 -105 -10 -25 -21 -67
-25 -95 -4 -27 -20 -84 -35 -125 -39 -103 -38 -100 -54 -235 -25 -220 21 -372
99 -321 32 21 38 20 30 -6 -15 -49 -63 -61 -135 -32 -53 21 -74 53 -96 146
-11 43 -21 78 -24 78 -3 0 -22 -22 -42 -49 -74 -98 -149 -131 -221 -96 -66 31
-108 161 -78 239 11 27 10 28 -5 15 -15 -12 -16 -11 -9 11 4 14 13 32 21 40 7
8 17 33 22 55 44 183 75 271 91 261 5 -3 9 11 8 32 -1 89 24 198 51 220 9 6
11 12 5 12 -13 0 -3 50 32 155 14 41 30 98 35 125 5 28 25 83 44 124 l34 74
42 -8 c23 -4 46 -12 52 -18z m-1038 -223 c15 -12 31 -31 35 -42 7 -18 -22
-101 -86 -254 -3 -9 4 -13 21 -13 35 0 33 -17 -3 -25 -15 -3 -33 -16 -40 -28
-24 -46 -103 -305 -111 -367 -14 -99 -31 -281 -28 -292 6 -16 63 38 115 106
60 78 69 87 78 78 5 -4 5 -1 1 6 -5 8 2 20 18 33 14 11 26 25 26 31 0 14 30
48 42 48 5 0 -3 -17 -17 -37 -14 -21 -25 -47 -25 -58 0 -11 -15 -44 -33 -74
-17 -30 -40 -68 -51 -85 -61 -103 -125 -160 -166 -149 -10 3 -32 17 -50 32
-30 24 -33 34 -43 113 -8 65 -8 103 2 159 23 132 43 222 71 324 31 110 29 119
-29 111 -35 -5 -71 7 -71 24 0 6 17 10 38 10 20 0 54 3 75 7 35 5 41 11 61 57
12 28 26 65 30 81 4 17 22 66 41 110 18 44 35 88 39 98 7 23 27 22 60 -4z
m2013 -108 c-3 -38 -12 -82 -21 -98 -8 -16 -21 -65 -30 -108 -38 -200 -46
-235 -60 -264 -9 -16 -16 -45 -16 -64 0 -19 -7 -40 -15 -47 -8 -7 -13 -16 -10
-20 3 -5 0 -21 -6 -37 -13 -31 -52 -254 -46 -260 2 -2 16 25 31 59 15 35 41
90 58 122 16 33 32 69 34 80 10 55 142 201 209 232 201 94 247 -112 78 -356
-50 -72 -135 -148 -177 -155 -37 -7 -89 -3 -117 9 -12 5 -18 0 -22 -21 -10
-47 -84 -152 -113 -159 -35 -9 -102 22 -85 39 6 6 11 27 11 47 0 54 36 279 54
335 17 53 20 72 10 63 -17 -18 -62 -233 -71 -343 -3 -38 -7 -72 -9 -74 -14
-16 -1 174 17 243 67 264 84 336 94 396 4 19 15 67 25 105 10 39 29 113 40
165 12 52 26 105 31 118 10 25 65 62 93 62 17 0 18 -6 13 -69z m771 -241 c36
-22 52 -55 52 -103 -2 -145 -135 -293 -274 -306 l-61 -6 -19 -55 c-10 -30 -21
-94 -23 -142 l-6 -88 30 0 c87 0 356 207 382 293 20 69 52 142 77 181 51 77
137 175 164 186 72 30 159 4 187 -55 14 -29 15 -42 5 -85 -6 -27 -20 -59 -29
-70 -76 -90 -137 -126 -230 -138 -54 -7 -57 -8 -69 -46 -8 -21 -15 -68 -16
-105 l-3 -66 51 0 c87 1 200 72 372 235 40 38 69 64 66 57 -4 -7 2 -3 14 7 46
40 19 -7 -47 -82 -86 -97 -193 -197 -267 -248 -52 -36 -62 -39 -123 -39 -102
0 -172 52 -174 128 -1 33 -2 34 -15 16 -7 -10 -32 -29 -55 -40 -48 -25 -63
-42 -41 -49 11 -4 7 -14 -20 -46 -27 -31 -52 -47 -109 -68 l-74 -27 -69 23
c-90 30 -97 43 -90 173 7 135 33 200 186 462 26 46 59 87 79 100 43 29 104 30
149 3z m-2333 -24 c79 -33 94 -122 36 -208 -59 -87 -132 -132 -233 -144 l-56
-6 -16 -57 c-11 -34 -16 -80 -14 -116 l3 -60 41 -3 c64 -5 123 30 239 139 57
53 113 100 125 104 12 4 17 11 14 18 -4 7 -4 9 1 5 4 -4 14 -3 22 3 10 9 13 8
13 -4 0 -26 -121 -129 -226 -193 -11 -7 -16 -15 -12 -19 3 -3 15 -1 27 6 26
17 36 7 20 -19 -16 -25 -68 -54 -138 -77 -46 -15 -62 -16 -105 -6 -68 16 -113
52 -126 102 -28 104 35 277 158 430 91 114 145 139 227 105z m1017 -87 c29
-23 47 -29 83 -29 87 0 109 -31 50 -71 -38 -26 -42 -43 -20 -73 8 -11 15 -28
15 -37 0 -10 8 -22 18 -28 20 -11 25 -97 6 -109 -6 -4 -15 -18 -19 -32 -11
-39 -64 -117 -100 -149 -94 -83 -240 -58 -259 44 -9 45 24 142 76 224 l40 63
-30 42 c-57 81 -66 143 -25 176 38 29 113 20 165 -21z m-466 -155 c-4 -9 -9
-15 -11 -12 -3 3 -3 13 1 22 4 9 9 15 11 12 3 -3 3 -13 -1 -22z m-888 -879 c8
-49 16 -97 19 -105 4 -8 13 33 21 93 l14 107 34 0 c37 0 34 9 57 -155 l13 -90
13 105 c17 140 17 140 51 140 16 0 31 -3 33 -7 2 -5 -10 -116 -27 -248 l-32
-240 -36 -3 -35 -3 -12 76 c-6 42 -11 87 -11 100 0 50 -18 23 -24 -37 -15
-139 -15 -138 -52 -138 -27 0 -35 5 -39 23 -6 31 -65 446 -65 464 0 10 10 13
33 11 l32 -3 13 -90z m482 60 l0 -35 -50 0 -50 0 0 -50 0 -50 50 0 50 0 0 -35
0 -35 -50 0 -50 0 0 -95 0 -95 50 0 50 0 0 -35 0 -36 -82 3 -83 3 -3 235 c-1
129 0 240 2 247 4 9 30 13 86 13 l80 0 0 -35z m378 1 c12 -12 25 -39 29 -59 6
-37 6 -37 -31 -37 -31 0 -36 3 -36 24 0 25 -15 37 -37 28 -20 -7 -18 -338 1
-345 19 -7 36 12 36 40 0 20 5 23 35 23 33 0 35 -2 35 -35 0 -24 -9 -44 -29
-67 -38 -43 -89 -44 -129 -5 l-27 27 -3 184 -3 183 26 31 c39 47 89 50 133 8z
m256 17 c3 -10 21 -112 41 -228 20 -115 39 -220 42 -232 5 -21 1 -23 -30 -23
-38 0 -38 -1 -53 118 -6 51 -7 52 -40 52 -36 0 -33 7 -52 -115 -7 -47 -9 -50
-40 -53 -26 -3 -32 0 -32 16 0 10 16 121 35 246 19 126 35 230 35 232 0 2 20
4 44 4 34 0 46 -4 50 -17z m271 3 c44 -19 55 -58 55 -196 0 -87 -4 -112 -20
-143 l-21 -39 20 -54 21 -54 -39 0 c-37 0 -39 2 -51 45 -18 63 -30 65 -30 6
l0 -51 -35 0 -35 0 0 250 0 250 50 0 c28 0 66 -6 85 -14z m285 -21 c0 -35 0
-35 -45 -35 l-45 0 0 -50 0 -50 45 0 c45 0 45 0 45 -35 0 -35 0 -35 -45 -35
l-45 0 0 -95 0 -95 45 0 c45 0 45 0 45 -35 l0 -35 -80 0 -80 0 0 250 0 250 80
0 80 0 0 -35z m388 -2 l3 -33 -50 0 -51 0 0 -50 0 -50 50 0 50 0 0 -35 0 -35
-50 0 -50 0 0 -130 0 -130 -35 0 -35 0 0 243 c0 134 3 247 7 251 4 4 41 5 83
4 l75 -3 3 -32z m220 1 c21 -24 22 -32 22 -214 0 -185 -1 -189 -24 -217 -19
-22 -32 -28 -66 -28 -34 0 -47 6 -66 28 -23 27 -24 32 -24 215 0 156 3 191 16
210 34 48 102 51 142 6z m248 3 c23 -27 24 -35 24 -166 0 -122 -2 -142 -19
-162 -19 -23 -19 -25 0 -74 10 -27 19 -53 19 -57 0 -5 -16 -8 -35 -8 -32 0
-35 3 -52 50 -10 28 -21 50 -25 50 -5 0 -8 -22 -8 -50 l0 -50 -35 0 -35 0 0
251 0 251 71 -4 c63 -3 74 -7 95 -31z m314 -165 c0 -209 6 -238 46 -230 18 3
19 16 24 213 l5 210 33 3 32 3 0 -215 0 -214 -26 -31 c-44 -52 -113 -51 -156
3 -15 18 -18 48 -18 239 l0 217 30 0 30 0 0 -198z"/>
<path d="M1251 2478 c0 -9 -4 -25 -7 -35 -5 -17 -5 -17 6 0 6 10 9 25 7 35 -4
15 -5 15 -6 0z"/>
<path d="M1211 2353 c-6 -21 -11 -47 -11 -58 1 -17 2 -18 10 -4 14 24 29 99
19 99 -4 0 -13 -17 -18 -37z"/>
<path d="M1192 2230 c0 -14 2 -19 5 -12 2 6 2 18 0 25 -3 6 -5 1 -5 -13z"/>
<path d="M1180 2177 c0 -16 4 -26 10 -22 6 3 10 2 10 -4 0 -5 -4 -11 -8 -13
-5 -1 -12 -26 -15 -55 -5 -41 -2 -57 11 -73 l18 -22 2 25 c1 14 -5 27 -12 30
-15 6 -10 47 5 47 14 0 10 55 -6 86 l-15 29 0 -28z"/>
<path d="M3587 2453 c-34 -35 -47 -43 -47 -30 0 10 -5 15 -11 12 -6 -4 -8 -14
-5 -22 3 -8 2 -12 -3 -9 -5 3 -14 -8 -20 -24 -6 -20 -17 -30 -30 -30 -26 0
-67 -55 -92 -122 -13 -34 -14 -47 -5 -35 12 15 14 15 19 3 4 -9 2 -18 -2 -21
-5 -2 -11 -17 -14 -32 -3 -16 -9 -39 -13 -52 -5 -17 -4 -22 4 -17 6 3 16 -3
22 -14 14 -27 42 -25 69 4 22 24 61 41 61 27 0 -4 -6 -13 -12 -20 -11 -11 -10
-12 4 -5 35 19 136 193 141 244 2 16 7 33 10 37 9 8 9 100 1 131 -9 32 -24 28
-77 -25z m-127 -133 c0 -11 -7 -20 -15 -20 -18 0 -19 12 -3 28 16 16 18 15 18
-8z m10 -40 c-17 -33 -35 -60 -41 -60 -7 0 -4 11 6 27 10 14 26 41 37 60 32
54 31 38 -2 -27z m-59 -43 c-8 -8 -11 -7 -11 4 0 20 13 34 18 19 3 -7 -1 -17
-7 -23z m12 -57 c-6 -24 -23 -37 -23 -18 0 12 18 38 26 38 1 0 0 -9 -3 -20z
m-32 -77 c-8 -15 -10 -15 -11 -2 0 17 10 32 18 25 2 -3 -1 -13 -7 -23z"/>
<path d="M3262 2434 c-22 -75 -23 -111 -2 -49 11 33 18 67 17 75 -2 8 -9 -3
-15 -26z"/>
<path d="M3490 2415 c-6 -8 -10 -19 -8 -26 2 -6 9 0 16 15 13 29 10 33 -8 11z"/>
<path d="M3345 2149 c-4 -6 -5 -12 -2 -15 2 -3 7 2 10 11 7 17 1 20 -8 4z"/>
<path d="M3546 2074 c-5 -14 -4 -15 9 -4 17 14 19 20 6 20 -5 0 -12 -7 -15
-16z"/>
<path d="M4144 2603 c-75 -98 -154 -238 -154 -273 0 -30 170 91 194 138 31 60
32 172 2 172 -8 0 -26 -17 -42 -37z"/>
<path d="M4626 2589 c-38 -30 -174 -244 -163 -255 8 -9 89 32 144 73 57 41 73
72 73 138 0 57 -19 72 -54 44z"/>
<path d="M4696 2503 c-6 -14 -5 -15 5 -6 7 7 10 15 7 18 -3 3 -9 -2 -12 -12z"/>
<path d="M1848 2610 c-30 -18 -177 -254 -165 -266 9 -9 117 52 165 94 39 34
44 42 49 94 4 39 2 62 -7 73 -14 17 -19 18 -42 5z"/>
<path d="M1920 2529 c-7 -11 -10 -23 -7 -25 2 -2 9 7 15 21 14 30 7 33 -8 4z"/>
<path d="M2794 2534 c-17 -41 -11 -94 16 -126 l18 -22 21 41 c11 23 25 44 31
48 19 12 10 43 -21 69 -40 34 -47 33 -65 -10z"/>
<path d="M2914 2368 c-9 -18 -30 -49 -45 -68 -16 -19 -29 -40 -29 -48 0 -7
-11 -34 -24 -60 -29 -58 -41 -141 -21 -148 35 -14 118 53 155 125 19 37 40
134 31 146 -5 5 -14 27 -20 48 -15 45 -26 47 -47 5z"/>
<path d="M2980 2200 c-33 -65 -29 -80 7 -27 22 32 40 87 29 87 -3 0 -19 -27
-36 -60z"/>
<path d="M2638 1495 c-4 -11 -10 -44 -13 -72 -6 -49 -5 -53 14 -53 23 0 25 18
12 100 -5 33 -9 40 -13 25z"/>
<path d="M2890 1431 c0 -124 1 -131 20 -131 27 0 31 25 28 150 -3 100 -4 105
-25 108 -23 3 -23 3 -23 -127z"/>
<path d="M3767 1553 c-4 -3 -7 -82 -7 -174 0 -171 7 -204 37 -164 18 25 19
315 1 333 -14 14 -22 15 -31 5z"/>
<path d="M4000 1430 c0 -131 0 -131 23 -128 21 3 22 6 22 128 0 122 -1 125
-22 128 -23 3 -23 3 -23 -128z"/>
<path d="M2270 116 c0 -16 13 -21 73 -32 29 -5 37 -3 37 8 0 18 -42 38 -80 38
-19 0 -30 -5 -30 -14z"/>
</g>
</svg>
